<?xml version="1.0" encoding="utf-8"?>
<svg version="1.1" id="Layer_1" xmlns="http://www.w3.org/2000/svg" xmlns:xlink="http://www.w3.org/1999/xlink" x="0px" y="0px"
	 viewBox="0 0 49.7 49.7" style="enable-background:new 0 0 49.7 49.7;" xml:space="preserve">
<g>
	<g>
		<path d="M24.9,0C11.1,0,0,11.1,0,24.9s11.1,24.9,24.9,24.9s24.9-11.1,24.9-24.9l0,0C49.7,11.1,38.6,0,24.9,0C24.9,0,24.9,0,24.9,0
			z M24.9,46.2c-11.8,0-21.4-9.6-21.4-21.4S13.1,3.5,24.9,3.5s21.4,9.6,21.4,21.4l0,0C46.2,36.7,36.7,46.2,24.9,46.2z"/>
		<g>
			<g>
				<path d="M25.1,39.8c-3,0-5.5-0.5-7.5-1.5c-2-1-3.5-2.4-4.6-4.1c-1-1.8-1.7-3.8-1.9-6.1c0-0.3,0-0.8-0.1-1.4c0-0.6,0-1.2,0-1.8
					c0-0.6,0-1.2,0-1.8c0-0.6,0-1,0.1-1.3c0.1-1.6,0.5-3,1.2-4.5c0.6-1.4,1.5-2.7,2.6-3.8c1.1-1.1,2.5-2,4.1-2.6
					c1.6-0.6,3.5-0.9,5.6-0.9c2.6,0,4.7,0.3,6.5,0.9c1.8,0.6,3.2,1.4,4.3,2.5c1.1,1.1,1.9,2.3,2.5,3.8c0.5,1.4,0.9,3,1,4.7
					c0,0.5,0.1,1.1,0.1,1.7c0,0.6,0,1.2,0,1.7c0,0.5,0,1-0.1,1.3c-0.1,1.2-0.4,2.3-0.9,3.1c-0.5,0.8-1.2,1.5-2,1.9
					C35,31.8,34.1,32,33.2,32c-0.8,0-1.5-0.1-2.1-0.3c-0.6-0.2-1.1-0.5-1.5-0.8c-0.4-0.3-0.7-0.5-0.9-0.8c-0.2,0.3-0.4,0.6-0.8,1
					c-0.3,0.4-0.8,0.7-1.4,0.9c-0.6,0.2-1.5,0.4-2.6,0.4c-1.8,0-3.3-0.7-4.3-2s-1.6-3.2-1.6-5.5c0-2.3,0.5-4.2,1.5-5.5
					c1-1.4,2.4-2,4.3-2c1,0,1.8,0.2,2.3,0.5c0.6,0.3,1,0.7,1.4,1.2v-0.5c0-0.3,0.1-0.5,0.3-0.7c0.2-0.2,0.4-0.3,0.7-0.3h1.9
					c0.3,0,0.5,0.1,0.7,0.3c0.2,0.2,0.3,0.4,0.3,0.7V26c0,0.8,0.2,1.4,0.5,1.8c0.3,0.4,0.8,0.6,1.4,0.6c0.5,0,0.9-0.1,1.2-0.4
					c0.3-0.3,0.5-0.6,0.6-1c0.1-0.4,0.2-0.7,0.2-1.1c0-0.5,0-1.2,0-1.9c0-0.7,0-1.4-0.1-2.2c-0.1-1.9-0.5-3.4-1.2-4.7
					c-0.7-1.2-1.8-2.2-3.3-2.8c-1.5-0.6-3.5-0.9-6-0.9c-2.1,0-3.8,0.4-5.2,1.1s-2.4,1.7-3.2,2.9c-0.8,1.3-1.2,2.7-1.4,4.4
					c0,0.4-0.1,1-0.1,1.8c0,0.8,0,1.5,0,2.3c0,0.8,0,1.4,0.1,1.9c0.3,2.6,1.3,4.7,2.9,6.1s4.1,2.2,7.4,2.2c1.5,0,2.8-0.1,3.7-0.3
					c0.9-0.2,1.7-0.4,2.2-0.7s1.1-0.6,1.5-0.9c0.2-0.1,0.4-0.3,0.5-0.4c0.2-0.1,0.4-0.1,0.6-0.1h2.6c0.2,0,0.5,0.1,0.6,0.3
					s0.3,0.4,0.2,0.7c0,0.1,0,0.2-0.1,0.3c0,0.1-0.1,0.2-0.2,0.2c-0.7,0.8-1.6,1.5-2.6,2.2c-1,0.7-2.3,1.3-3.8,1.7
					C29,39.5,27.2,39.8,25.1,39.8z M24.6,28.8c1,0,1.7-0.3,2.2-1c0.5-0.6,0.7-1.6,0.7-3c0-1.4-0.2-2.4-0.7-3c-0.5-0.7-1.2-1-2.2-1
					c-0.9,0-1.7,0.3-2.1,1c-0.5,0.7-0.7,1.7-0.7,3c0,0.8,0.1,1.6,0.3,2.1c0.2,0.6,0.5,1,1,1.4S23.9,28.8,24.6,28.8z"/>
			</g>
		</g>
	</g>
</g>
</svg>
