<svg xmlns="http://www.w3.org/2000/svg" xmlns:xlink="http://www.w3.org/1999/xlink" id="Layer_2" data-name="Layer 2" viewBox="0 0 448.33 457.16"><defs><linearGradient id="linear-gradient" x1="305.26" x2="302.72" y1="342.39" y2="21" gradientUnits="userSpaceOnUse"><stop offset="0" stop-color="gray"/><stop offset="1" stop-color="#333"/></linearGradient><linearGradient xlink:href="#linear-gradient" id="linear-gradient-2" x1="127.75" x2="129.72" y1="329.76" y2="28.74"/><linearGradient id="linear-gradient-3" x1="127.75" x2="129.68" y1="334.13" y2="38.25" gradientUnits="userSpaceOnUse"><stop offset="0" stop-color="#ccc"/><stop offset=".07" stop-color="#c4c4c4"/><stop offset=".45" stop-color="#a5a5a5"/><stop offset=".78" stop-color="#929292"/><stop offset="1" stop-color="#8c8c8c"/></linearGradient><linearGradient id="linear-gradient-4" x1="100.55" x2="216.48" y1="285.16" y2="84.37" gradientUnits="userSpaceOnUse"><stop offset="0" stop-color="#fff" stop-opacity="0"/><stop offset="1" stop-color="#4d4d4d"/></linearGradient><linearGradient id="linear-gradient-5" x1="305.26" x2="302.76" y1="346.54" y2="30.64" gradientUnits="userSpaceOnUse"><stop offset="0" stop-color="#858585"/><stop offset=".43" stop-color="#505050"/><stop offset=".81" stop-color="#282828"/><stop offset="1" stop-color="#1a1a1a"/></linearGradient><linearGradient xlink:href="#linear-gradient-4" id="linear-gradient-6" x1="332.27" x2="216.34" y1="285.16" y2="84.37"/><style>.cls-5{stroke-linecap:round;stroke-linejoin:round}.cls-7{fill:#383838}.cls-5{fill:#b8b8b8;stroke:#b8b8b8;stroke-width:27px}</style></defs><g id="Layer_1-2" data-name="Layer 1"><path fill="url(#linear-gradient)" stroke="#e5e5e5" stroke-linecap="round" stroke-linejoin="round" stroke-width="24" d="m216.41 143.41 69.49-.29L329.21 12c106.71 250.03 86.05 178.81-112.8 333.66"/><path fill="url(#linear-gradient-2)" stroke="#e5e5e5" stroke-linecap="round" stroke-linejoin="round" stroke-width="24" d="m216.41 143.41-69.49-.29L103.62 12C-3.09 262.03 17.56 190.81 216.41 345.66"/><path d="m65.14 443.58 2.75-35.98-18.58 35.98h-7.92L28.38 407.6l-2.83 35.98H13.5L19.05 373h9.98l17.96 49.58L72.67 373h9.98l-5.47 70.58H65.13ZM80.98 415.09c1.17-14.8 14.55-28.49 28.07-28.58 4.95 0 9.57 1.83 13.39 4.85l.38-4.85h12.05l-4.49 57.07h-12.05l.38-4.78c-4.28 3-9.17 4.81-14.15 4.78-13.69 0-24.73-13.86-23.58-28.49Zm12.05 0c-.8 10.16 4.29 16.53 12.48 16.44 8.14 0 14.17-6.09 15.03-15.98l.04-.46c.81-10.24-4.21-16.44-12.47-16.53-8.18 0-14.27 6.28-15.07 16.53ZM178.11 403.73l-.47 6.03h-12.05l.47-6.03c.25-3.18-2.1-5.08-8.2-5.17-6.02 0-8.68 1.98-9.01 5.17-.46 5.85 30.84 4.05 29.21 22.64-.73 9.3-12.72 17.3-23.73 17.21-10.93 0-21.76-7.83-21.02-17.21l.47-6.03h12.05l-.47 6.03c-.24 3.01 2.77 5.25 9.92 5.16 7.23 0 10.49-2.07 10.74-5.16.46-5.85-30.51-3.87-29.21-22.64.73-9.21 12.02-17.13 22.01-17.21 10.16 0 20.03 8 19.3 17.21ZM224.41 403.73l-.47 6.03h-12.05l.47-6.03c.25-3.18-2.1-5.08-8.2-5.17-6.03 0-8.68 1.98-9.01 5.17-.46 5.85 30.84 4.05 29.21 22.64-.73 9.3-12.72 17.3-23.73 17.21-10.93 0-21.76-7.83-21.02-17.21l.47-6.03h12.05l-.47 6.03c-.24 3.01 2.77 5.25 9.92 5.16 7.23 0 10.49-2.07 10.74-5.16.46-5.85-30.51-3.87-29.21-22.64.72-9.21 12.02-17.13 22.01-17.21 10.16 0 20.03 8 19.3 17.21ZM232.48 386.51h12.05l-4.49 57.07h-12.05l4.49-57.07Zm.43-5.51.95-12.05H246l-.95 12.05h-12.14ZM275.26 398.56c-6.8 0-11.56 4.65-12.19 12.65l-2.55 32.36h-12.05l4.49-57.07h12.05l-.28 3.51c3.58-2.18 7.54-3.48 11.47-3.51 12.14-.09 22.37 12.14 21.3 24.7l-2.47 32.45h-11.96l2.38-32.45c.63-8-3.31-12.65-10.19-12.65ZM325.5 431.61c5.42 0 10.37-2.67 10.81-4.99l11.9-.26c-.32 4.04-5.47 17.13-23.64 17.13-11.98 0-26.67-8.8-25.15-28.49 1.51-18.37 15.74-28.49 27.4-28.49 19.45 0 24.74 13.73 23.11 34.52H311.2c1.53 6.89 7.6 10.59 14.31 10.59Zm13.31-22.55c.33-4.22-4.69-10.42-12.95-10.5-6.42 0-11.5 3.88-13.82 10.5h26.77ZM406.5 443.58l2.75-35.98-18.58 35.98h-7.92l-13.01-35.98-2.83 35.98h-12.05l5.55-70.58h9.99l17.96 49.58L414.04 373h9.98l-5.47 70.58H406.5ZM422.78 431.44h12.05l-.96 12.14h-12.05l.96-12.14Z" class="cls-5"/><path d="m65.14 443.58 2.75-35.98-18.58 35.98h-7.92L28.38 407.6l-2.83 35.98H13.5L19.05 373h9.98l17.96 49.58L72.67 373h9.98l-5.47 70.58H65.13ZM80.98 415.09c1.17-14.8 14.55-28.49 28.07-28.58 4.95 0 9.57 1.83 13.39 4.85l.38-4.85h12.05l-4.49 57.07h-12.05l.38-4.78c-4.28 3-9.17 4.81-14.15 4.78-13.69 0-24.73-13.86-23.58-28.49Zm12.05 0c-.8 10.16 4.29 16.53 12.48 16.44 8.14 0 14.17-6.09 15.03-15.98l.04-.46c.81-10.24-4.21-16.44-12.47-16.53-8.18 0-14.27 6.28-15.07 16.53ZM178.11 403.73l-.47 6.03h-12.05l.47-6.03c.25-3.18-2.1-5.08-8.2-5.17-6.02 0-8.68 1.98-9.01 5.17-.46 5.85 30.84 4.05 29.21 22.64-.73 9.3-12.72 17.3-23.73 17.21-10.93 0-21.76-7.83-21.02-17.21l.47-6.03h12.05l-.47 6.03c-.24 3.01 2.77 5.25 9.92 5.16 7.23 0 10.49-2.07 10.74-5.16.46-5.85-30.51-3.87-29.21-22.64.73-9.21 12.02-17.13 22.01-17.21 10.16 0 20.03 8 19.3 17.21ZM224.41 403.73l-.47 6.03h-12.05l.47-6.03c.25-3.18-2.1-5.08-8.2-5.17-6.03 0-8.68 1.98-9.01 5.17-.46 5.85 30.84 4.05 29.21 22.64-.73 9.3-12.72 17.3-23.73 17.21-10.93 0-21.76-7.83-21.02-17.21l.47-6.03h12.05l-.47 6.03c-.24 3.01 2.77 5.25 9.92 5.16 7.23 0 10.49-2.07 10.74-5.16.46-5.85-30.51-3.87-29.21-22.64.72-9.21 12.02-17.13 22.01-17.21 10.16 0 20.03 8 19.3 17.21ZM232.48 386.51h12.05l-4.49 57.07h-12.05l4.49-57.07Zm.43-5.51.95-12.05H246l-.95 12.05h-12.14ZM275.26 398.56c-6.8 0-11.56 4.65-12.19 12.65l-2.55 32.36h-12.05l4.49-57.07h12.05l-.28 3.51c3.58-2.18 7.54-3.48 11.47-3.51 12.14-.09 22.37 12.14 21.3 24.7l-2.47 32.45h-11.96l2.38-32.45c.63-8-3.31-12.65-10.19-12.65ZM325.5 431.61c5.42 0 10.37-2.67 10.81-4.99l11.9-.26c-.32 4.04-5.47 17.13-23.64 17.13-11.98 0-26.67-8.8-25.15-28.49 1.51-18.37 15.74-28.49 27.4-28.49 19.45 0 24.74 13.73 23.11 34.52H311.2c1.53 6.89 7.6 10.59 14.31 10.59Zm13.31-22.55c.33-4.22-4.69-10.42-12.95-10.5-6.42 0-11.5 3.88-13.82 10.5h26.77ZM406.5 443.58l2.75-35.98-18.58 35.98h-7.92l-13.01-35.98-2.83 35.98h-12.05l5.55-70.58h9.99l17.96 49.58L414.04 373h9.98l-5.47 70.58H406.5ZM422.78 431.44h12.05l-.96 12.14h-12.05l.96-12.14Z" class="cls-7"/><path fill="url(#linear-gradient-3)" stroke="url(#linear-gradient-4)" stroke-miterlimit="10" stroke-width="4" d="m216.41 147.52-69.49-.29L106.2 23.92c-.9-2.72-4.69-2.88-5.81-.25C-2.65 264.71 19.6 196.51 216.41 349.77"/><path d="M126.84 193.6c-7.14 24.44 26.79 34.64 40.37 46.98 7.14-24.44-26.79-34.64-40.37-46.98Z" class="cls-7"/><path fill="url(#linear-gradient-5)" stroke="url(#linear-gradient-6)" stroke-miterlimit="10" stroke-width="4" d="m216.41 147.52 69.49-.29 40.73-123.3c.9-2.72 4.69-2.88 5.81-.25 103.03 241.03 80.79 172.83-116.03 326.09"/><path fill="#b6b6b6" d="M305.98 193.6c7.14 24.44-26.79 34.64-40.37 46.98-7.14-24.44 26.79-34.64 40.37-46.98Z"/></g></svg>
