<svg xmlns="http://www.w3.org/2000/svg" data-name="Layer 2" viewBox="0 0 49.74 49.74"><g data-name="Layer 1"><path d="M24.87 0C11.13 0 0 11.13 0 24.87s11.13 24.87 24.87 24.87 24.87-11.13 24.87-24.87S38.61 0 24.87 0Zm15.88 39.21c-7.89 8.77-21.41 9.49-30.18 1.59A21.366 21.366 0 0 1 3.7 21.94c.56-4.11 2.31-8.1 5.29-11.41 7.89-8.77 21.41-9.49 30.18-1.59a21.366 21.366 0 0 1 6.87 18.86c-.56 4.11-2.31 8.1-5.29 11.41Z"/><path d="M29.59 34.3V20.04c0-.64-.52-1.16-1.16-1.16H18.9c-.64 0-1.16.52-1.16 1.16v4.8c0 .64.52 1.16 1.16 1.17.63 0 1.15.5 1.16 1.13v7.16c0 .64-.52 1.16-1.16 1.16-.64 0-1.16.52-1.16 1.16v5.1c0 .64.52 1.16 1.16 1.16h11.94c.64 0 1.16-.52 1.16-1.16v-5.05c0-.64-.52-1.16-1.16-1.16h-.09c-.64 0-1.16-.52-1.16-1.16v-.05Z"/><circle cx="23.95" cy="11.55" r="4.69"/></g></svg>