<svg xmlns="http://www.w3.org/2000/svg" data-name="Layer 2" viewBox="0 0 1921 5400" preserveAspectRatio="none"><g data-name="Layer 1"><path fill="#fff" d="M1 4360.5h1920V5400H1z"/><path fill="#f3edff" d="M0 4548.72s185.99 10.57 439.5 14.28c273 4 373.51-31.45 522-33 191-2 338 34 509 35 261.24 1.53 449.5-16.28 449.5-16.28V3240.5H0v1308.22Z"/><path fill="#e2dfff" d="M0 3518.72s589.24-77.97 1065-21.22c339.5 40.5 855 21.22 855 21.22V2141.5H0v1377.22Z"/><path fill="#cbc9ff" d="M1 2450.72S673 2552.5 897.5 2499c245.15-58.42 1023.5-48.28 1023.5-48.28V1080.5H1v1370.22Z"/><path fill="#869cff" d="M.5 1240.22s232-55.22 620.96 0c320.73 45.53 1299.04 0 1299.04 0V0H.5v1240.22Z"/></g></svg>
